HIERARCHY
ROOT root
{
	OFFSET 0.000000 0.000000 0.000000
	CHANNELS 6 Xposition Yposition Zposition Zrotation Yrotation Xrotation
	JOINT lhip
	{
		OFFSET 0.058581 -0.082280 -0.017664
		CHANNELS 3 Zrotation Yrotation Xrotation
		JOINT lknee
		{
			OFFSET 0.043451 -0.386469 0.008037
			CHANNELS 3 Zrotation Yrotation Xrotation
			JOINT lankle
			{
				OFFSET -0.014790 -0.426874 -0.037428
				CHANNELS 3 Zrotation Yrotation Xrotation
				JOINT ltoe
				{
					OFFSET 0.041054 -0.060286 0.122042
					CHANNELS 3 Zrotation Yrotation Xrotation
					End Site
					{
						OFFSET 0.000000 0.000000 0.000000
					}
				}
			}
		}
	}
	JOINT rhip
	{
		OFFSET -0.060310 -0.090513 -0.013543
		CHANNELS 3 Zrotation Yrotation Xrotation
		JOINT rknee
		{
			OFFSET -0.043257 -0.383688 -0.004843
			CHANNELS 3 Zrotation Yrotation Xrotation
			JOINT rankle
			{
				OFFSET 0.019056 -0.420046 -0.034562
				CHANNELS 3 Zrotation Yrotation Xrotation
				JOINT rtoe
				{
					OFFSET -0.034840 -0.062106 0.130323
					CHANNELS 3 Zrotation Yrotation Xrotation
					End Site
					{
						OFFSET 0.000000 0.000000 0.000000
					}
				}
			}
		}
	}
	JOINT lowerback
	{
		OFFSET 0.004439 0.124404 -0.038385
		CHANNELS 3 Zrotation Yrotation Xrotation
		JOINT upperback
		{
			OFFSET 0.004488 0.137956 0.026820
			CHANNELS 3 Zrotation Yrotation Xrotation
			JOINT chest
			{
				OFFSET -0.002265 0.056032 0.002855
				CHANNELS 3 Zrotation Yrotation Xrotation
				JOINT lowerneck
				{
					OFFSET -0.013390 0.211636 -0.033468
					CHANNELS 3 Zrotation Yrotation Xrotation
					JOINT upperneck
					{
						OFFSET 0.010113 0.088937 0.050410
						CHANNELS 3 Zrotation Yrotation Xrotation
						End Site
						{
							OFFSET 0.000000 0.000000 0.000000
						}
					}
				}
				JOINT lclavicle
				{
					OFFSET 0.071702 0.114000 -0.018898
					CHANNELS 3 Zrotation Yrotation Xrotation
					JOINT lshoulder
					{
						OFFSET 0.122921 0.045205 -0.019046
						CHANNELS 3 Zrotation Yrotation Xrotation
						JOINT lelbow
						{
							OFFSET 0.255332 -0.015649 -0.022946
							CHANNELS 3 Zrotation Yrotation Xrotation
							JOINT lwrist
							{
								OFFSET 0.265709 0.012698 -0.007375
								CHANNELS 3 Zrotation Yrotation Xrotation
								End Site
								{
									OFFSET 0.000000 0.000000 0.000000
								}
							}
						}
					}
				}
				JOINT rclavicle
				{
					OFFSET -0.082954 0.112472 -0.023707
					CHANNELS 3 Zrotation Yrotation Xrotation
					JOINT rshoulder
					{
						OFFSET -0.113228 0.046853 -0.008472
						CHANNELS 3 Zrotation Yrotation Xrotation
						JOINT relbow
						{
							OFFSET -0.260127 -0.014369 -0.031269
							CHANNELS 3 Zrotation Yrotation Xrotation
							JOINT rwrist
							{
								OFFSET -0.269108 0.006794 -0.006027
								CHANNELS 3 Zrotation Yrotation Xrotation
								End Site
								{
									OFFSET 0.000000 0.000000 0.000000
								}
							}
						}
					}
				}
			}
		}
	}
}
MOTION
Frames: 17
Frame Time: 0.033333
2.341412 0.708502 1.014470 -87.501748 0.171459 84.564087 0.567784 0.918622 5.033305 -0.314537 -11.700343 -0.428189 0.259624 6.699200 -5.484133 0.000000 -0.000000 0.000000 0.362896 -3.958427 3.893972 -3.759731 0.314659 3.823586 1.967295 -8.274306 -8.311289 0.000000 -0.000000 0.000000 0.313963 2.096129 8.517373 -1.669414 -3.415290 -3.098698 0.075234 -0.590974 -1.130749 -2.654009 -4.202554 -9.891486 5.403336 -1.758638 1.143979 -23.389775 -11.924719 7.910033 -58.186143 -7.448511 14.281519 0.666056 -9.791417 23.330916 -7.710215 -5.735105 -5.007536 19.386766 15.292044 6.510211 59.408181 3.004038 21.310574 -0.105321 28.287945 30.407539 24.861663 -3.464654 -4.018206 
2.345760 0.709348 1.007476 -88.172589 0.034632 85.058080 0.126915 0.157211 3.907181 -0.217511 -10.489859 -0.214563 0.230237 6.903227 -4.674192 0.000000 -0.000000 0.000000 0.406304 -3.030982 2.372280 -3.933920 0.078402 4.535933 1.182788 -8.632377 -8.541051 0.000000 -0.000000 0.000000 -0.254132 0.855462 7.743310 -1.178519 -2.347897 -0.074213 0.139778 0.142182 -2.378394 -2.250824 -3.742710 -12.366386 4.707051 -1.871172 1.850758 -22.640926 -12.051490 7.336705 -58.911447 -9.348702 12.942698 -0.174434 -12.008064 19.816248 -11.896159 -7.549932 -7.517617 17.795178 15.428683 6.708844 60.035222 4.783528 20.881050 -0.160663 28.938122 29.833997 26.201104 -3.759509 -4.345579 
2.347322 0.710453 1.005171 -88.534200 0.263163 85.917711 0.501467 -0.184598 2.645626 -0.453215 -9.925370 0.058931 0.409496 6.818574 -4.601070 0.000000 -0.000000 0.000000 0.847603 -2.449076 1.133995 -3.919534 0.097585 4.560572 1.308807 -8.511024 -8.200342 0.000000 -0.000000 0.000000 -0.197000 1.136725 7.465259 -1.077540 -2.145840 -0.822647 0.190438 0.131943 -2.292944 -2.215499 -3.756695 -12.125585 4.651600 -1.949842 1.558248 -23.115913 -11.769402 7.180658 -58.689696 -9.481513 13.179825 -0.106955 -12.298458 19.382270 -13.166516 -7.482751 -6.750106 18.385333 15.066492 6.713864 59.461531 4.687145 20.890395 0.163145 28.949348 29.377995 25.736495 -3.640017 -4.246402 
2.347843 0.710662 1.004375 -88.532251 0.261346 86.099603 0.512893 -0.230376 2.365853 -0.502979 -9.888928 0.122178 0.509007 6.828652 -4.691045 0.000000 -0.000000 0.000000 0.935957 -2.417955 0.858047 -4.031664 0.035916 4.595801 1.332653 -8.726401 -8.284730 0.000000 -0.000000 0.000000 -0.338467 1.033207 7.704916 -1.102586 -1.994120 -1.565461 0.154540 0.158392 -2.076988 -1.950873 -3.678008 -12.390279 4.464513 -2.061129 1.982480 -23.496034 -11.144404 6.653578 -58.535384 -9.657172 13.282012 -0.205933 -11.779999 19.869701 -13.488678 -7.648021 -6.384616 18.752163 14.657551 6.403193 59.375939 4.806391 21.182472 0.486888 28.263241 29.097014 25.375045 -3.656433 -4.228558 
2.347933 0.710430 1.004050 -88.426619 0.306281 86.176259 0.533395 -0.205377 2.273278 -0.429093 -9.938459 0.049678 0.432829 6.688001 -4.627687 0.000000 -0.000000 0.000000 0.995370 -2.329037 0.810373 -4.009382 -0.042339 4.512700 1.308198 -8.576474 -8.152943 0.000000 -0.000000 0.000000 -0.343056 0.957693 7.634275 -1.072309 -2.002747 -1.593532 0.180532 0.159325 -2.079604 -2.006911 -3.833568 -12.010210 4.452784 -1.956975 1.489491 -23.632043 -11.232950 6.714962 -58.586016 -9.689591 13.298364 0.027884 -11.667225 19.361970 -14.057220 -7.560751 -6.606923 18.700007 14.680721 6.409703 59.444321 4.727983 21.166025 0.336682 28.175822 28.739699 25.353056 -3.355043 -4.432723 
2.347782 0.710104 1.003891 -88.374090 0.342612 86.103914 0.553052 -0.159156 2.487133 -0.385787 -10.052174 -0.236262 0.494767 6.647087 -4.601815 0.000000 -0.000000 0.000000 1.029785 -2.413004 0.929463 -4.047268 -0.127826 4.445759 1.280865 -8.682817 -8.118276 0.000000 -0.000000 0.000000 -0.386908 0.895134 7.651298 -1.024651 -2.070515 -1.476588 0.224457 0.223150 -2.128167 -2.099678 -3.935789 -11.856943 4.332546 -1.927219 1.136673 -23.472219 -11.274727 6.735280 -58.567638 -9.656424 13.385472 -0.178780 -11.558568 19.709637 -14.581348 -7.570607 -7.247901 18.743245 14.797627 6.453382 59.357892 4.626563 21.093987 0.282931 28.135647 28.153520 24.938806 -3.000217 -4.528362 
2.347962 0.710038 1.003703 -88.423870 0.365038 86.058542 0.593590 -0.158310 2.584672 -0.397662 -10.061429 -0.347704 0.359212 6.601389 -4.703032 0.000000 -0.000000 0.000000 1.062873 -2.363622 0.965716 -4.054494 -0.147491 4.393966 1.316584 -8.644551 -8.159886 0.000000 -0.000000 0.000000 -0.438794 0.892848 7.648781 -0.931760 -2.063050 -1.283938 0.279062 0.158005 -2.129212 -2.126698 -3.858540 -11.687230 4.127741 -1.924784 0.602747 -23.323659 -11.268936 6.697211 -58.392867 -9.753709 13.442402 -0.578985 -11.160675 19.736169 -14.923879 -8.040205 -7.779897 18.663909 14.786074 6.387915 59.282232 4.757362 21.205678 0.445456 28.003543 27.675611 24.370254 -2.507413 -4.781298 
2.348309 0.709670 1.003570 -88.502081 0.312652 86.047016 0.528385 -0.158222 2.568691 -0.423695 -9.993793 -0.352062 0.261004 6.541759 -4.681690 0.000000 -0.000000 0.000000 0.988237 -2.323168 0.917481 -4.050838 -0.134073 4.444881 1.437530 -8.716584 -8.178759 0.000000 -0.000000 0.000000 -0.531910 0.984971 7.582369 -0.867337 -2.091655 -1.177664 0.242392 0.122288 -2.041557 -2.045562 -3.575353 -11.634748 4.062812 -2.018968 0.536889 -23.580224 -11.502465 6.753788 -57.548327 -9.710191 13.534813 -0.840131 -10.932286 19.533880 -14.618344 -8.470957 -7.241216 18.883522 14.753493 6.222636 58.905268 4.817063 21.319226 0.726781 27.941046 27.592989 24.004769 -2.421304 -4.785933 
2.348356 0.709222 1.003453 -88.583360 0.271518 86.069512 0.482353 -0.172357 2.563319 -0.414485 -9.868124 -0.389157 0.320919 6.651107 -4.615016 0.000000 -0.000000 0.000000 0.939346 -2.231967 0.882997 -4.001088 -0.006351 4.423409 1.349993 -8.680780 -8.098276 0.000000 -0.000000 0.000000 -0.500165 0.978216 7.567049 -0.873418 -1.994059 -1.245909 0.032648 0.247347 -2.058805 -1.863834 -3.404589 -11.613850 3.993878 -2.314944 0.806107 -23.531017 -11.215874 6.500100 -56.699460 -9.708928 13.471508 -1.352737 -10.789308 19.545312 -16.329437 -8.662822 -7.516451 19.237303 14.466815 6.177846 58.675424 4.843842 21.472211 0.731667 27.885251 27.279514 24.380735 -2.593476 -4.520144 
2.348205 0.708317 1.003357 -88.916998 0.157193 86.203421 0.280954 -0.135218 2.535814 -0.356990 -9.838572 -0.520860 0.226750 6.793987 -4.723135 0.000000 -0.000000 0.000000 0.692045 -2.214089 0.818305 -3.858161 0.064115 4.196405 1.518542 -8.479850 -8.095745 0.000000 -0.000000 0.000000 -0.443132 1.156660 7.387100 -0.956937 -1.797053 -1.406155 -0.185559 0.359663 -2.058824 -1.528937 -3.387862 -11.118083 3.776810 -2.713139 0.853128 -23.505453 -10.562637 5.941840 -55.959790 -9.657337 13.349396 -1.676725 -10.378745 19.682632 -17.575687 -8.618172 -7.205303 19.464552 13.922560 6.011962 58.751012 4.935450 21.546461 0.726224 27.551077 26.668844 24.356307 -2.320088 -4.619871 
2.348162 0.707747 1.003424 -89.022714 0.145460 86.258279 0.290161 -0.073033 2.532527 -0.366644 -9.715160 -0.607264 0.108577 6.795500 -4.773855 0.000000 -0.000000 0.000000 0.646471 -2.220562 0.778109 -3.809439 0.169569 4.099606 1.623401 -8.349050 -7.854767 0.000000 -0.000000 0.000000 -0.372018 1.184904 7.379494 -0.990619 -1.672269 -1.804285 -0.290079 0.486533 -1.845638 -1.441538 -3.437270 -10.829291 3.674752 -3.017815 0.965444 -23.518686 -10.022162 5.541383 -55.421349 -9.576290 13.304440 -2.122040 -10.389664 19.768889 -17.115176 -8.505369 -6.406559 19.674129 13.499435 5.741140 58.579918 4.840851 21.653665 1.040712 27.349999 26.615736 23.860648 -2.240025 -4.338447 
2.347622 0.707146 1.003773 -88.899591 0.229998 86.096441 0.427100 -0.136781 2.852673 -0.465485 -9.958262 -0.803366 -0.042037 6.724502 -4.954141 0.000000 -0.000000 0.000000 0.660745 -2.335262 1.187974 -3.722453 0.123078 3.765309 1.570745 -8.425213 -7.792500 0.000000 -0.000000 0.000000 -0.344255 1.238029 7.172624 -0.876426 -1.794484 -1.208132 -0.230648 0.386251 -1.998005 -1.501244 -3.422484 -10.470754 3.674004 -3.018882 0.361987 -23.613379 -10.183540 5.878415 -54.991903 -9.385218 13.119988 -2.143434 -10.582009 19.548689 -18.214473 -8.856981 -6.978201 19.752938 13.699653 5.893249 58.291977 4.863705 21.512889 1.052793 27.403734 26.394659 23.966593 -2.048097 -4.366221 
2.347476 0.706764 1.003767 -88.754305 0.209069 86.054716 0.371835 -0.074229 2.947169 -0.401051 -10.014786 -0.923887 -0.104649 6.691308 -5.034850 0.000000 -0.000000 0.000000 0.642869 -2.367290 1.353526 -3.779485 0.115729 3.578588 1.685691 -8.485556 -7.944520 0.000000 -0.000000 0.000000 -0.399455 1.266574 7.191503 -0.799907 -1.851094 -1.119319 -0.172188 0.310536 -1.996157 -1.591945 -3.441533 -10.305220 3.591362 -3.138695 -0.025237 -23.516121 -10.330023 6.040713 -54.806121 -9.090671 13.410036 -2.687295 -10.715681 20.006806 -17.369035 -9.317080 -6.579375 19.744856 13.806900 5.884928 58.140075 4.790587 21.426330 1.292222 27.269464 25.647139 22.735057 -1.545956 -4.630254 
2.347592 0.706586 1.003458 -88.577102 0.167759 85.852792 0.302538 -0.066691 3.106106 -0.416290 -10.225681 -0.865292 -0.095527 6.697357 -4.997229 0.000000 -0.000000 0.000000 0.559857 -2.388456 1.439383 -3.737362 0.044657 3.848646 1.757170 -8.569747 -8.099866 0.000000 -0.000000 0.000000 -0.458541 1.134241 7.416716 -0.759080 -1.871700 -1.036804 -0.158650 0.351382 -1.948542 -1.531608 -3.317283 -10.480926 3.528129 -3.196083 -0.071937 -23.231511 -10.273010 6.043762 -54.667760 -9.003750 13.478583 -3.457874 -10.721392 20.667068 -17.513712 -9.590491 -6.980182 19.647775 13.808257 5.861552 58.072009 4.869690 21.430369 1.536970 27.223391 25.444786 22.090097 -1.299883 -4.568544 
2.347719 0.706609 1.003386 -88.480681 0.192287 85.715297 0.317131 -0.101978 3.181477 -0.418069 -10.313343 -0.771114 -0.128651 6.751803 -5.116192 0.000000 -0.000000 0.000000 0.613250 -2.357572 1.519188 -3.807451 -0.060521 3.979793 1.687424 -8.731649 -8.144007 0.000000 -0.000000 0.000000 -0.476339 1.035644 7.686110 -0.703079 -1.888506 -1.147016 -0.123613 0.427727 -1.907273 -1.504485 -3.275165 -10.567626 3.579803 -3.333427 -0.074331 -23.199493 -10.222442 6.040709 -54.469232 -8.804304 13.562069 -3.980146 -10.770689 20.602180 -17.835029 -9.466120 -7.589844 19.764380 13.795545 5.789275 57.904114 4.807498 21.468917 1.699927 27.026713 25.072605 21.787647 -1.084813 -4.510321 
2.347756 0.706608 1.003337 -88.369562 0.157610 85.756975 0.293522 -0.129275 3.230201 -0.400020 -10.319767 -0.960099 -0.133616 6.664203 -5.095138 0.000000 -0.000000 0.000000 0.600679 -2.361241 1.455497 -3.820329 -0.092592 4.025672 1.705238 -8.726379 -8.195539 0.000000 -0.000000 0.000000 -0.504114 1.061833 7.639465 -0.700515 -1.870974 -1.135658 -0.162694 0.399560 -1.844735 -1.300630 -3.448971 -10.514149 3.491329 -3.621712 -0.081212 -23.400277 -9.940468 6.080068 -54.215913 -8.750010 13.511070 -4.002953 -10.731029 20.841597 -17.910857 -9.771326 -7.426488 20.048297 13.782097 6.007654 57.742705 4.831997 21.493067 1.479494 26.821299 24.600977 21.385742 -0.575481 -4.502219 
2.347932 0.706531 1.003538 -88.357948 0.158697 85.697450 0.296302 -0.109615 3.361424 -0.359006 -10.451734 -1.125821 -0.264019 6.675661 -5.013907 0.000000 -0.000000 0.000000 0.624787 -2.335344 1.636464 -3.831668 -0.012939 3.806828 1.754050 -8.743410 -8.061071 0.000000 -0.000000 0.000000 -0.400610 1.081707 7.797888 -0.849382 -1.681142 -1.183987 -0.271817 0.491103 -1.914885 -1.067002 -3.667788 -10.293238 3.548326 -3.926614 -0.318800 -23.505619 -9.559639 5.823356 -53.888346 -8.820350 13.554324 -4.184187 -10.587893 21.000752 -18.024197 -9.878022 -7.261060 20.174956 13.490980 5.897463 57.731679 4.838476 21.500205 2.033934 26.103393 24.328017 20.230971 0.111555 -4.516475 
